<svg width="690" height="449" viewBox="0 0 690 449" fill="none" xmlns="http://www.w3.org/2000/svg">
<g clip-path="url(#clip0_325_194)">
<path d="M211.813 420.111C216.481 410.027 221.146 399.794 223.172 388.869C225.199 377.943 224.348 366.086 218.545 356.609C212.743 347.133 201.317 340.707 190.414 342.849C181.459 344.609 174.268 351.662 170.057 359.759C165.847 367.856 164.158 376.989 162.52 385.968C161.991 375.767 161.43 365.403 158.042 355.768C154.654 346.132 147.982 337.153 138.473 333.425C128.964 329.696 116.594 332.628 111.582 341.528C104.521 354.066 113.884 371.653 105.765 383.534C104.372 371.617 91.91 362.201 80.0659 364.118C68.2218 366.034 59.3648 378.899 61.8013 390.647C63.2511 397.638 68.0206 403.584 73.7229 407.879C79.4251 412.175 86.0571 417.154 92.6177 419.969L211.813 420.111Z" fill="#F2F2F2"/>
<path d="M68.0198 372.537C77.4281 375.826 86.9228 379.152 95.5121 384.293C103.21 388.901 110.065 395.105 114.394 403.05C116.766 407.312 118.175 412.043 118.52 416.908C118.583 417.926 120.175 417.933 120.112 416.908C119.555 407.847 115.139 399.555 109.025 392.998C102.321 385.808 93.6333 380.897 84.6638 377.087C79.3456 374.828 73.8952 372.908 68.443 371.003C67.4741 370.664 67.0575 372.201 68.0198 372.537Z" fill="white"/>
<path d="M122.287 335.005C128.068 344.634 132.697 354.91 136.079 365.62C139.467 376.327 141.602 387.39 142.44 398.589C142.903 404.857 142.954 411.15 142.591 417.425C142.532 418.449 144.124 418.445 144.183 417.425C144.825 406.111 144.14 394.76 142.142 383.605C140.148 372.451 136.87 361.565 132.373 351.165C129.85 345.323 126.939 339.656 123.662 334.201C123.552 334.027 123.378 333.902 123.177 333.853C122.977 333.804 122.765 333.835 122.587 333.939C122.408 334.043 122.277 334.213 122.222 334.411C122.166 334.61 122.189 334.823 122.287 335.005Z" fill="white"/>
<path d="M200.188 344.147C192.012 362.517 186.258 381.872 183.071 401.725C182.177 407.302 181.484 412.906 180.994 418.537C180.905 419.557 182.497 419.551 182.585 418.537C184.318 398.728 188.6 379.226 195.323 360.512C197.212 355.251 199.292 350.063 201.562 344.95C201.974 344.022 200.603 343.212 200.188 344.147Z" fill="white"/>
<path d="M482.474 441.791L482.346 431.91L435.761 432.512L435.889 442.394L482.474 441.791Z" fill="#E6E6E6"/>
<path d="M499.026 443.996L492.374 443.977L488.261 436.64L492.706 429.327L498.888 429.345C497.34 427.376 495.214 425.941 492.809 425.24C490.404 424.54 487.841 424.61 485.477 425.44C483.114 426.27 481.07 427.819 479.632 429.87C478.193 431.92 477.432 434.37 477.456 436.874C477.48 439.379 478.287 441.814 479.764 443.836C481.241 445.859 483.314 447.369 485.693 448.155C488.071 448.94 490.636 448.961 493.027 448.215C495.418 447.47 497.516 445.994 499.026 443.996Z" fill="#E6E6E6"/>
<path d="M419.208 443.996L425.861 443.977L429.973 436.64L425.528 429.327L419.347 429.345C420.895 427.376 423.021 425.941 425.426 425.24C427.83 424.54 430.394 424.61 432.757 425.44C435.121 426.27 437.165 427.819 438.603 429.87C440.042 431.92 440.802 434.37 440.779 436.874C440.755 439.379 439.948 441.814 438.471 443.836C436.994 445.859 434.921 447.369 432.542 448.155C430.164 448.94 427.599 448.961 425.208 448.215C422.817 447.47 420.719 445.994 419.208 443.996Z" fill="#E6E6E6"/>
<path d="M689 420.969H1C0.734784 420.969 0.480429 420.864 0.292892 420.676C0.105356 420.489 0 420.234 0 419.969C0 419.704 0.105356 419.45 0.292892 419.262C0.480429 419.075 0.734784 418.969 1 418.969H689C689.265 418.969 689.52 419.075 689.707 419.262C689.895 419.45 690 419.704 690 419.969C690 420.234 689.895 420.489 689.707 420.676C689.52 420.864 689.265 420.969 689 420.969Z" fill="#3F3D56"/>
<path d="M540.486 230.969C558.712 230.969 573.486 216.195 573.486 197.969C573.486 179.744 558.712 164.969 540.486 164.969C522.261 164.969 507.486 179.744 507.486 197.969C507.486 216.195 522.261 230.969 540.486 230.969Z" fill="#2F2E41"/>
<path d="M553.859 383.226L556.401 395.219L603.871 391.124L600.12 373.423L553.859 383.226Z" fill="#FFB8B8"/>
<path d="M550.166 420.709L542.178 383.016L556.741 379.93L561.643 403.06C562.461 406.922 561.712 410.952 559.56 414.262C557.407 417.572 554.028 419.891 550.166 420.709Z" fill="#2F2E41"/>
<path d="M524.12 382.586L518.777 393.621L473.673 378.264L481.559 361.979L524.12 382.586Z" fill="#FFB8B8"/>
<path d="M511.808 399.976L522.112 378.695L535.511 385.182L518.72 419.862C516.96 419.01 515.386 417.82 514.086 416.359C512.786 414.899 511.787 413.197 511.146 411.35C510.504 409.504 510.232 407.549 510.346 405.597C510.459 403.645 510.956 401.735 511.808 399.976Z" fill="#2F2E41"/>
<path d="M435.259 360.793C436.803 361.081 438.392 361.026 439.912 360.633C441.433 360.241 442.849 359.519 444.06 358.52C445.272 357.521 446.25 356.268 446.925 354.85C447.6 353.432 447.956 351.884 447.968 350.313L522.342 281.742L503.872 267.437L436.535 339.38C433.895 339.535 431.404 340.653 429.533 342.522C427.663 344.391 426.543 346.881 426.386 349.52C426.229 352.16 427.045 354.765 428.681 356.843C430.316 358.92 432.657 360.326 435.259 360.793Z" fill="#FFB8B8"/>
<path d="M536.344 232.459C549.909 232.459 560.906 221.463 560.906 207.898C560.906 194.334 549.909 183.337 536.344 183.337C522.78 183.337 511.783 194.334 511.783 207.898C511.783 221.463 522.78 232.459 536.344 232.459Z" fill="#FFB8B8"/>
<path d="M558.386 352.273C541.158 352.273 520.408 348.644 507.608 333.796L507.319 333.461L507.616 333.133C507.713 333.026 517.13 322.264 507.727 303.072L494.799 307.05L481.929 290.061L489.058 268.672L518.236 245.168C522.416 241.819 527.506 239.802 532.846 239.379C542.51 238.444 551.925 235.763 560.631 231.466C564.615 229.53 569.003 228.571 573.431 228.667L574.005 228.683C575.351 228.721 576.676 229.032 577.899 229.598C579.122 230.163 580.217 230.971 581.119 231.972C582.02 232.973 582.709 234.147 583.143 235.422C583.577 236.697 583.748 238.048 583.645 239.391C581.667 265.021 578.173 326.934 588.437 348.252L588.702 348.803L588.109 348.953C578.354 351.148 568.386 352.261 558.386 352.273Z" fill="#240879"/>
<path d="M510.986 333.469C510.986 333.469 445.986 327.469 438.986 346.469C431.986 365.469 439.986 374.469 451.986 378.469C463.986 382.469 492.986 387.469 492.986 387.469L505.986 371.469L539.986 373.469C539.986 373.469 577.871 395.443 588.346 418.943C590.593 424.029 594.177 428.411 598.716 431.622C603.255 434.834 608.58 436.755 614.123 437.182C622.521 437.766 629.986 434.594 629.986 421.469C629.986 391.469 587.986 348.469 587.986 348.469L510.986 333.469Z" fill="#2F2E41"/>
<path d="M461.486 362.969C461.486 362.969 478.486 357.969 505.486 370.969Z" fill="#2F2E41"/>
<path d="M511.843 192.235C521.435 198.09 532.248 201.653 543.442 202.647L540.111 198.656C542.536 199.552 545.088 200.059 547.672 200.157C548.966 200.195 550.25 199.928 551.422 199.38C552.595 198.831 553.622 198.015 554.422 196.998C555.075 195.942 555.463 194.743 555.553 193.504C555.643 192.265 555.432 191.023 554.937 189.883C553.922 187.61 552.342 185.634 550.348 184.144C546.813 181.348 542.641 179.47 538.204 178.677C533.767 177.884 529.202 178.201 524.917 179.6C521.978 180.478 519.346 182.167 517.322 184.472C516.327 185.633 515.636 187.023 515.311 188.517C514.986 190.011 515.037 191.563 515.459 193.033" fill="#2F2E41"/>
<path d="M540.309 172.604C544.673 162.471 551.206 153.418 559.446 146.083C564.738 141.38 570.918 137.339 577.892 136.12C584.866 134.9 592.725 136.99 597.003 142.631C600.501 147.244 601.155 153.424 600.77 159.2C600.384 164.976 599.093 170.696 599.217 176.484C599.343 182.39 600.942 188.17 603.869 193.301C606.796 198.432 610.958 202.75 615.977 205.865C620.996 208.979 626.714 210.79 632.61 211.134C638.507 211.479 644.397 210.345 649.744 207.835C643.722 211.164 639.03 216.433 633.439 220.443C627.848 224.454 620.476 227.203 614.127 224.553C607.409 221.75 604.327 214.134 601.921 207.264L591.189 176.624C589.365 171.416 587.45 166.053 583.727 161.979C580.004 157.905 573.962 155.422 568.838 157.47C564.954 159.022 562.425 162.728 560.207 166.274C557.99 169.82 555.65 173.594 551.904 175.453C548.157 177.313 542.605 176.168 541.381 172.169" fill="#2F2E41"/>
<path d="M539.626 321.192L532.729 328.27L566.095 360.784L572.992 353.706L539.626 321.192Z" fill="#E6E6E6"/>
<path d="M566.51 354.289C565.146 355.689 564.228 357.462 563.871 359.384C563.515 361.305 563.736 363.29 564.507 365.086C565.279 366.882 566.565 368.409 568.204 369.473C569.843 370.538 571.761 371.093 573.716 371.068C575.67 371.042 577.573 370.438 579.184 369.331C580.795 368.224 582.041 366.665 582.766 364.849C583.49 363.034 583.66 361.045 583.254 359.133C582.848 357.221 581.884 355.472 580.485 354.108C578.607 352.279 576.081 351.271 573.46 351.305C570.839 351.338 568.339 352.412 566.51 354.289ZM576.621 364.142C576.036 364.742 575.287 365.155 574.468 365.329C573.648 365.503 572.796 365.43 572.018 365.12C571.24 364.809 570.571 364.275 570.097 363.584C569.623 362.894 569.364 362.078 569.353 361.241C569.342 360.403 569.58 359.581 570.036 358.879C570.492 358.176 571.147 357.625 571.916 357.294C572.686 356.964 573.537 356.869 574.36 357.022C575.184 357.175 575.944 357.568 576.544 358.153C577.348 358.937 577.808 360.008 577.823 361.131C577.837 362.254 577.405 363.337 576.621 364.142Z" fill="#E6E6E6"/>
<path d="M529.48 307.928L534.17 312.646L531.89 320.742L523.576 322.77L519.218 318.386C518.92 320.873 519.408 323.391 520.614 325.587C521.819 327.783 523.681 329.546 525.939 330.63C528.197 331.714 530.738 332.064 533.205 331.631C535.672 331.198 537.942 330.004 539.696 328.217C541.451 326.429 542.602 324.137 542.987 321.662C543.373 319.187 542.975 316.653 541.849 314.416C540.722 312.179 538.924 310.35 536.705 309.187C534.487 308.024 531.961 307.583 529.48 307.928Z" fill="#E6E6E6"/>
<path d="M548.736 352.359C548.312 352.359 547.889 352.335 547.468 352.289C544.999 352.002 542.7 350.89 540.942 349.133C539.185 347.376 538.074 345.076 537.788 342.607C537.612 341.067 537.764 339.508 538.233 338.03C538.702 336.553 539.478 335.191 540.51 334.035C541.542 332.878 542.807 331.953 544.221 331.319C545.636 330.685 547.169 330.358 548.719 330.357C549.209 330.36 549.699 330.397 550.185 330.467L583.763 294.722L580.258 283.037L597.863 275.146L602.797 287.206C604.45 291.291 604.742 295.8 603.629 300.065C602.516 304.329 600.058 308.121 596.62 310.878L559.659 340.279C559.698 340.637 559.718 340.997 559.719 341.357C559.718 342.904 559.391 344.434 558.76 345.846C558.128 347.258 557.207 348.522 556.055 349.554C554.049 351.367 551.439 352.367 548.736 352.359Z" fill="#FFB8B8"/>
<path d="M574.986 233.469C576.15 232.952 577.407 232.675 578.681 232.655C579.955 232.636 581.22 232.874 582.399 233.356C583.579 233.837 584.649 234.552 585.545 235.458C586.441 236.364 587.145 237.441 587.614 238.625L604.986 282.469L577.986 300.469L574.986 233.469Z" fill="#240879"/>
<path d="M448.486 243.707V25.2623C448.477 18.5652 445.812 12.1452 441.077 7.40962C436.341 2.67407 429.921 0.00947579 423.224 0H79.9538C73.2568 0.00947843 66.8367 2.67408 62.1012 7.40962C57.3656 12.1452 54.701 18.5652 54.6915 25.2623V243.707C54.701 250.404 57.3656 256.824 62.1012 261.56C66.8367 266.295 73.2568 268.96 79.9538 268.969H423.224C429.921 268.96 436.341 266.295 441.077 261.56C445.812 256.824 448.477 250.404 448.486 243.707ZM79.9538 265.997C74.0443 265.99 68.3788 263.639 64.2002 259.461C60.0215 255.282 57.6708 249.616 57.6636 243.707V25.2623C57.6708 19.3528 60.0215 13.6873 64.2002 9.50864C68.3788 5.32996 74.0443 2.97921 79.9538 2.97202H423.224C429.133 2.97921 434.799 5.32996 438.978 9.50864C443.156 13.6873 445.507 19.3528 445.514 25.2623V243.707C445.507 249.616 443.156 255.282 438.978 259.461C434.799 263.639 429.133 265.99 423.224 265.997H79.9538Z" fill="#3F3D56"/>
<path d="M445.514 39.303H57.6636C57.2695 39.303 56.8915 39.1465 56.6129 38.8678C56.3342 38.5891 56.1776 38.2112 56.1776 37.817C56.1776 37.4229 56.3342 37.045 56.6129 36.7663C56.8915 36.4876 57.2695 36.3311 57.6636 36.3311H445.514C445.908 36.3311 446.286 36.4876 446.565 36.7663C446.844 37.045 447 37.4229 447 37.817C447 38.2112 446.844 38.5891 446.565 38.8678C446.286 39.1465 445.908 39.303 445.514 39.303Z" fill="#3F3D56"/>
<path d="M82.9259 28.2342C87.0295 28.2342 90.356 24.9076 90.356 20.8041C90.356 16.7006 87.0295 13.374 82.9259 13.374C78.8224 13.374 75.4958 16.7006 75.4958 20.8041C75.4958 24.9076 78.8224 28.2342 82.9259 28.2342Z" fill="#6C63FF"/>
<path d="M108.188 28.2342C112.292 28.2342 115.618 24.9076 115.618 20.8041C115.618 16.7006 112.292 13.374 108.188 13.374C104.085 13.374 100.758 16.7006 100.758 20.8041C100.758 24.9076 104.085 28.2342 108.188 28.2342Z" fill="#6C63FF"/>
<path d="M133.45 28.2342C137.554 28.2342 140.881 24.9076 140.881 20.8041C140.881 16.7006 137.554 13.374 133.45 13.374C129.347 13.374 126.02 16.7006 126.02 20.8041C126.02 24.9076 129.347 28.2342 133.45 28.2342Z" fill="#6C63FF"/>
<path d="M268.222 142.556L233.222 174.354C233.59 174.504 233.961 174.649 234.333 174.789C234.518 174.859 234.703 174.928 234.889 174.995L235.333 175.155C235.481 175.207 235.629 175.259 235.778 175.31L236.222 175.46C236.37 175.509 236.518 175.557 236.667 175.605L237.333 175.814C237.555 175.882 237.777 175.949 238 176.014L238.667 176.203C238.851 176.254 239.037 176.304 239.222 176.352L239.889 176.523C240.074 176.569 240.259 176.614 240.444 176.658L241.111 176.811C241.37 176.868 241.629 176.924 241.889 176.977L242.556 177.109C242.74 177.145 242.926 177.179 243.111 177.212L243.556 177.29C243.703 177.315 243.852 177.34 244 177.363L244.556 177.45C244.667 177.466 244.778 177.482 244.889 177.498L245.222 177.544C245.444 177.575 245.666 177.603 245.889 177.63L246.444 177.695C246.629 177.715 246.815 177.735 247 177.753L247.667 177.815C247.852 177.831 248.037 177.846 248.222 177.859L248.778 177.898C249 177.912 249.222 177.925 249.444 177.936L250.556 177.98C250.851 177.988 251.148 177.994 251.444 177.997L252 178C252.371 178 252.742 177.996 253.111 177.988C253.297 177.984 253.482 177.979 253.667 177.973L253.889 177.965C254.111 177.957 254.334 177.947 254.556 177.936L255.222 177.898C255.519 177.879 255.816 177.857 256.111 177.833L256.667 177.785C256.964 177.758 257.26 177.728 257.556 177.695L258.444 177.589C258.667 177.56 258.889 177.53 259.111 177.498L260 177.363C260.148 177.34 260.297 177.315 260.444 177.29L261.444 177.109C261.704 177.06 261.964 177.008 262.222 176.954L262.778 176.835C263.15 176.754 263.52 176.668 263.889 176.578L265.111 176.263C265.446 176.173 265.779 176.079 266.111 175.981L267.222 175.641C267.557 175.534 267.89 175.423 268.222 175.31L269.099 175C269.396 174.892 269.693 174.781 269.988 174.667L270.778 174.354C271.076 174.234 271.372 174.11 271.667 173.984L272.333 173.692C272.669 173.543 273.002 173.39 273.333 173.233L274.333 172.747C274.594 172.617 274.853 172.484 275.111 172.35L276.222 171.752C276.534 171.578 276.845 171.402 277.153 171.222L278.333 170.512C278.669 170.303 279.003 170.091 279.333 169.874L280.222 169.279C280.483 169.1 280.743 168.919 281 168.736L282 168.004C282.261 167.807 282.521 167.609 282.778 167.407L284.222 166.234C284.615 165.903 285.003 165.565 285.385 165.222L286.467 164.222C286.85 163.858 287.227 163.487 287.598 163.111L288.667 161.994C289.005 161.629 289.339 161.258 289.667 160.883L290.42 160C290.73 159.629 291.034 159.253 291.333 158.872L292.004 158C292.266 157.65 292.524 157.297 292.778 156.941L293.222 156.305C293.443 155.984 293.661 155.66 293.874 155.333L294.918 153.667C296.989 150.212 298.654 146.486 299.848 142.556H268.222Z" fill="#240879"/>
<path fill-rule="evenodd" clip-rule="evenodd" d="M294.918 153.667L293.874 155.333C294.233 154.785 294.581 154.23 294.918 153.667ZM293.222 156.305L292.778 156.941C292.928 156.73 293.076 156.518 293.222 156.305ZM292.004 158L291.333 158.872C291.56 158.584 291.783 158.293 292.004 158ZM290.42 160L289.667 160.883C289.921 160.592 290.173 160.297 290.42 160ZM288.667 161.994L287.598 163.111C287.96 162.744 288.316 162.372 288.667 161.994ZM286.467 164.222L285.385 165.222C285.75 164.894 286.111 164.561 286.467 164.222ZM284.222 166.234L282.778 167.407C283.267 167.025 283.748 166.634 284.222 166.234ZM282 168.004L281 168.736C281.336 168.496 281.67 168.252 282 168.004ZM280.222 169.279L279.333 169.874C279.632 169.679 279.928 169.481 280.222 169.279ZM278.333 170.512L277.153 171.222C277.55 170.991 277.943 170.754 278.333 170.512ZM276.222 171.752L275.111 172.35C275.484 172.155 275.855 171.955 276.222 171.752ZM274.333 172.747L273.333 173.233C273.669 173.075 274.002 172.913 274.333 172.747ZM272.333 173.692L271.667 173.984C271.89 173.888 272.112 173.791 272.333 173.692ZM270.778 174.354L269.988 174.667C270.252 174.565 270.516 174.461 270.778 174.354ZM269.099 175L268.222 175.31C268.516 175.209 268.808 175.106 269.099 175ZM267.222 175.641L266.111 175.981C266.483 175.872 266.854 175.758 267.222 175.641ZM265.111 176.263L263.889 176.578C264.298 176.478 264.706 176.373 265.111 176.263ZM262.778 176.835L262.222 176.954C262.408 176.916 262.593 176.876 262.778 176.835ZM261.444 177.109L260.444 177.29C260.779 177.233 261.112 177.173 261.444 177.109ZM260 177.363L259.111 177.498C259.408 177.456 259.705 177.411 260 177.363ZM258.444 177.589L257.556 177.695C257.853 177.662 258.149 177.627 258.444 177.589ZM256.667 177.785L256.111 177.833C256.297 177.818 256.482 177.802 256.667 177.785ZM255.222 177.898L254.556 177.936C254.778 177.925 255 177.912 255.222 177.898ZM253.889 177.965L253.667 177.973C253.741 177.97 253.815 177.968 253.889 177.965ZM252 178L251.444 177.997C251.629 177.999 251.815 178 252 178ZM250.556 177.98L249.444 177.936C249.814 177.954 250.184 177.969 250.556 177.98ZM248.778 177.898L248.222 177.859C248.407 177.873 248.592 177.886 248.778 177.898ZM247.667 177.815L247 177.753C247.222 177.775 247.444 177.796 247.667 177.815ZM246.444 177.695L245.889 177.63C246.074 177.653 246.259 177.674 246.444 177.695ZM245.222 177.544L244.889 177.498C245 177.514 245.111 177.529 245.222 177.544ZM244.556 177.45L244 177.363C244.185 177.393 244.37 177.422 244.556 177.45ZM243.556 177.29L243.111 177.212C243.259 177.239 243.407 177.265 243.556 177.29ZM242.556 177.109L241.889 176.977C242.111 177.023 242.333 177.067 242.556 177.109ZM241.111 176.811L240.444 176.658C240.666 176.71 240.888 176.761 241.111 176.811ZM239.889 176.523L239.222 176.352C239.444 176.411 239.666 176.468 239.889 176.523ZM238.667 176.203L238 176.014C238.222 176.078 238.444 176.141 238.667 176.203ZM237.333 175.814L236.667 175.605C236.888 175.676 237.11 175.746 237.333 175.814ZM236.222 175.46L235.778 175.31C235.926 175.36 236.074 175.41 236.222 175.46ZM235.333 175.155L234.889 174.995C235.037 175.049 235.185 175.102 235.333 175.155Z" fill="#240879"/>
<path fill-rule="evenodd" clip-rule="evenodd" d="M217.301 164L215.134 161.778C215.834 162.541 216.556 163.282 217.301 164Z" fill="#240879"/>
<path d="M248.778 118.333L209.838 154.889C211.003 156.711 212.282 158.453 213.667 160.104C214.144 160.673 214.633 161.231 215.134 161.778L217.301 164C219.144 165.777 221.124 167.414 223.222 168.893L274.667 118.333H248.778Z" fill="#240879"/>
<path fill-rule="evenodd" clip-rule="evenodd" d="M302 128C302 128.409 301.995 128.816 301.985 129.222L301.973 126.333C301.991 126.887 302 127.442 302 128ZM301.731 122.778C301.777 123.221 301.817 123.665 301.851 124.111L301.731 122.778ZM301.433 120.444C301.494 120.85 301.551 121.258 301.603 121.667L301.433 120.444ZM301.044 118.222C301.11 118.554 301.173 118.888 301.232 119.222L301.044 118.222ZM300.523 115.889C300.606 116.221 300.685 116.554 300.761 116.889L300.523 115.889ZM299.948 113.778C300.079 114.22 300.204 114.664 300.323 115.111L299.948 113.778ZM299.115 111.222C299.273 111.664 299.424 112.108 299.569 112.556L299.115 111.222ZM297.984 108.333C298.204 108.847 298.416 109.366 298.619 109.889L297.984 108.333ZM296.912 106C297.094 106.37 297.272 106.744 297.444 107.119L296.912 106ZM295.116 102.667C295.499 103.317 295.868 103.977 296.222 104.646L295.116 102.667ZM293.203 99.6667C293.556 100.178 293.899 100.697 294.233 101.222L293.203 99.6667ZM291.233 97C291.551 97.4024 291.863 97.8099 292.17 98.2222L291.233 97ZM288.889 94.2474C289.347 94.7482 289.796 95.2585 290.234 95.7778L288.889 94.2474ZM286.778 92.0763C287.203 92.4879 287.621 92.907 288.031 93.3333L286.778 92.0763ZM283.444 89.1231C284.277 89.797 285.087 90.4972 285.874 91.2222L284.667 90.1454L283.444 89.1231ZM281.333 87.5041C281.746 87.8032 282.153 88.1085 282.556 88.4197L281.949 87.9578L281.333 87.5041ZM301.559 134.667L301.764 132.889L301.905 131.111C301.831 132.308 301.716 133.494 301.559 134.667ZM300.323 140.889L300.761 139.111L301.109 137.444C300.887 138.607 300.624 139.756 300.323 140.889ZM298.667 145.988L299.533 143.556C299.265 144.376 298.976 145.187 298.667 145.988ZM296.292 151.222L297.542 148.667C297.149 149.532 296.732 150.384 296.292 151.222ZM292.087 157.889L294.649 154.111C293.851 155.411 292.996 156.671 292.087 157.889ZM287.556 163.154L289.758 160.778C289.05 161.593 288.315 162.386 287.556 163.154ZM281.889 168.087L284.111 166.327C283.388 166.934 282.646 167.521 281.889 168.087ZM277.778 170.852L279.556 169.728C278.971 170.115 278.379 170.489 277.778 170.852ZM273.556 173.128L275.667 172.055C274.973 172.429 274.269 172.787 273.556 173.128ZM266.444 175.882L269.778 174.747C268.685 175.163 267.573 175.542 266.444 175.882ZM260 177.363L263.333 176.71C262.236 176.964 261.124 177.183 260 177.363ZM252 178L256.111 177.833C254.755 177.944 253.384 178 252 178ZM244 177.363L247.889 177.833C246.578 177.727 245.281 177.569 244 177.363ZM237.556 175.882L240.667 176.71C239.617 176.467 238.579 176.19 237.556 175.882ZM230.444 173.128L232.333 173.984L234.222 174.747C232.937 174.258 231.677 173.717 230.444 173.128ZM224.444 169.728L227.778 171.752C226.723 171.111 225.624 170.444 224.444 169.728ZM218.222 164.866L221.444 167.58C220.332 166.72 219.257 165.815 218.222 164.866ZM214.932 161.556L216.444 163.154C215.929 162.632 215.424 162.099 214.932 161.556ZM211.913 157.889L213.58 160C213.006 159.312 212.45 158.608 211.913 157.889ZM205.045 145.222L208.065 151.889C207.111 149.667 206.052 147.444 205.045 145.222Z" fill="#240879"/>
<path d="M252 78C224.386 78 202 100.386 202 128C202 134.052 203.075 139.853 205.045 145.222L270 81.338C264.415 79.182 258.345 78 252 78Z" fill="#240879"/>
<path d="M161.577 209.42V207.545H174.668V209.42H169.179V225H167.066V209.42H161.577ZM179.728 225.307C178.899 225.307 178.146 225.151 177.47 224.838C176.794 224.52 176.257 224.062 175.859 223.466C175.461 222.864 175.262 222.136 175.262 221.284C175.262 220.534 175.41 219.926 175.706 219.46C176.001 218.989 176.396 218.619 176.89 218.352C177.385 218.085 177.93 217.886 178.527 217.756C179.129 217.619 179.734 217.511 180.342 217.432C181.137 217.33 181.782 217.253 182.277 217.202C182.777 217.145 183.14 217.051 183.368 216.92C183.6 216.79 183.717 216.562 183.717 216.239V216.17C183.717 215.33 183.487 214.676 183.027 214.21C182.572 213.744 181.882 213.511 180.956 213.511C179.995 213.511 179.243 213.722 178.697 214.142C178.152 214.562 177.768 215.011 177.547 215.489L175.637 214.807C175.978 214.011 176.433 213.392 177.001 212.949C177.575 212.5 178.2 212.187 178.876 212.011C179.558 211.83 180.228 211.739 180.887 211.739C181.308 211.739 181.791 211.79 182.336 211.892C182.887 211.989 183.419 212.19 183.93 212.497C184.447 212.804 184.876 213.267 185.217 213.886C185.558 214.506 185.728 215.335 185.728 216.375V225H183.717V223.227H183.615C183.478 223.511 183.251 223.815 182.933 224.139C182.615 224.463 182.191 224.739 181.663 224.966C181.135 225.193 180.49 225.307 179.728 225.307ZM180.035 223.5C180.831 223.5 181.501 223.344 182.047 223.031C182.598 222.719 183.012 222.315 183.291 221.821C183.575 221.327 183.717 220.807 183.717 220.261V218.42C183.632 218.523 183.444 218.616 183.154 218.702C182.87 218.781 182.541 218.852 182.166 218.915C181.797 218.972 181.436 219.023 181.083 219.068C180.737 219.108 180.456 219.142 180.24 219.17C179.717 219.239 179.228 219.349 178.774 219.503C178.325 219.651 177.961 219.875 177.683 220.176C177.41 220.472 177.274 220.875 177.274 221.386C177.274 222.085 177.532 222.614 178.049 222.972C178.572 223.324 179.234 223.5 180.035 223.5ZM191.411 207.545V225H189.4V207.545H191.411ZM197.106 207.545V225H195.095V207.545H197.106ZM206.279 225.273C205.017 225.273 203.929 224.994 203.015 224.438C202.105 223.875 201.404 223.091 200.909 222.085C200.421 221.074 200.176 219.898 200.176 218.557C200.176 217.216 200.421 216.034 200.909 215.011C201.404 213.983 202.091 213.182 202.972 212.608C203.858 212.028 204.892 211.739 206.074 211.739C206.756 211.739 207.429 211.852 208.094 212.08C208.759 212.307 209.364 212.676 209.909 213.188C210.455 213.693 210.89 214.364 211.213 215.199C211.537 216.034 211.699 217.062 211.699 218.284V219.136H201.608V217.398H209.654C209.654 216.659 209.506 216 209.211 215.42C208.921 214.841 208.506 214.384 207.966 214.048C207.432 213.713 206.801 213.545 206.074 213.545C205.273 213.545 204.58 213.744 203.995 214.142C203.415 214.534 202.969 215.045 202.657 215.676C202.344 216.307 202.188 216.983 202.188 217.705V218.864C202.188 219.852 202.358 220.69 202.699 221.378C203.046 222.06 203.526 222.58 204.14 222.938C204.753 223.29 205.466 223.466 206.279 223.466C206.807 223.466 207.284 223.392 207.711 223.244C208.142 223.091 208.515 222.864 208.827 222.562C209.14 222.256 209.381 221.875 209.551 221.42L211.495 221.966C211.29 222.625 210.946 223.205 210.463 223.705C209.98 224.199 209.384 224.585 208.674 224.864C207.963 225.136 207.165 225.273 206.279 225.273ZM214.759 225V211.909H216.702V213.886H216.838C217.077 213.239 217.509 212.713 218.134 212.31C218.759 211.906 219.463 211.705 220.248 211.705C220.395 211.705 220.58 211.707 220.801 211.713C221.023 211.719 221.191 211.727 221.304 211.739V213.784C221.236 213.767 221.08 213.741 220.836 213.707C220.597 213.668 220.344 213.648 220.077 213.648C219.441 213.648 218.873 213.781 218.373 214.048C217.878 214.31 217.486 214.673 217.196 215.139C216.912 215.599 216.77 216.125 216.77 216.716V225H214.759ZM230.711 207.545H233.234L239.166 222.034H239.37L245.302 207.545H247.825V225H245.848V211.739H245.677L240.223 225H238.314L232.859 211.739H232.689V225H230.711V207.545ZM257.108 225.273C255.926 225.273 254.89 224.991 253.998 224.429C253.111 223.866 252.418 223.08 251.918 222.068C251.424 221.057 251.176 219.875 251.176 218.523C251.176 217.159 251.424 215.969 251.918 214.952C252.418 213.935 253.111 213.145 253.998 212.582C254.89 212.02 255.926 211.739 257.108 211.739C258.29 211.739 259.324 212.02 260.211 212.582C261.103 213.145 261.796 213.935 262.29 214.952C262.79 215.969 263.04 217.159 263.04 218.523C263.04 219.875 262.79 221.057 262.29 222.068C261.796 223.08 261.103 223.866 260.211 224.429C259.324 224.991 258.29 225.273 257.108 225.273ZM257.108 223.466C258.006 223.466 258.745 223.236 259.324 222.776C259.904 222.315 260.333 221.71 260.611 220.96C260.89 220.21 261.029 219.398 261.029 218.523C261.029 217.648 260.89 216.832 260.611 216.077C260.333 215.321 259.904 214.71 259.324 214.244C258.745 213.778 258.006 213.545 257.108 213.545C256.211 213.545 255.472 213.778 254.892 214.244C254.313 214.71 253.884 215.321 253.605 216.077C253.327 216.832 253.188 217.648 253.188 218.523C253.188 219.398 253.327 220.21 253.605 220.96C253.884 221.71 254.313 222.315 254.892 222.776C255.472 223.236 256.211 223.466 257.108 223.466ZM266.11 225V211.909H268.054V213.886H268.19C268.429 213.239 268.86 212.713 269.485 212.31C270.11 211.906 270.815 211.705 271.599 211.705C271.747 211.705 271.931 211.707 272.153 211.713C272.375 211.719 272.542 211.727 272.656 211.739V213.784C272.588 213.767 272.431 213.741 272.187 213.707C271.949 213.668 271.696 213.648 271.429 213.648C270.792 213.648 270.224 213.781 269.724 214.048C269.23 214.31 268.838 214.673 268.548 215.139C268.264 215.599 268.122 216.125 268.122 216.716V225H266.11ZM280.13 225.273C278.869 225.273 277.781 224.994 276.866 224.438C275.957 223.875 275.255 223.091 274.761 222.085C274.272 221.074 274.028 219.898 274.028 218.557C274.028 217.216 274.272 216.034 274.761 215.011C275.255 213.983 275.943 213.182 276.824 212.608C277.71 212.028 278.744 211.739 279.926 211.739C280.608 211.739 281.281 211.852 281.946 212.08C282.61 212.307 283.216 212.676 283.761 213.188C284.306 213.693 284.741 214.364 285.065 215.199C285.389 216.034 285.551 217.062 285.551 218.284V219.136H275.46V217.398H283.505C283.505 216.659 283.358 216 283.062 215.42C282.772 214.841 282.358 214.384 281.818 214.048C281.284 213.713 280.653 213.545 279.926 213.545C279.125 213.545 278.431 213.744 277.846 214.142C277.267 214.534 276.821 215.045 276.508 215.676C276.196 216.307 276.039 216.983 276.039 217.705V218.864C276.039 219.852 276.21 220.69 276.551 221.378C276.897 222.06 277.377 222.58 277.991 222.938C278.605 223.29 279.318 223.466 280.13 223.466C280.659 223.466 281.136 223.392 281.562 223.244C281.994 223.091 282.366 222.864 282.679 222.562C282.991 222.256 283.233 221.875 283.403 221.42L285.346 221.966C285.142 222.625 284.798 223.205 284.315 223.705C283.832 224.199 283.235 224.585 282.525 224.864C281.815 225.136 281.017 225.273 280.13 225.273ZM294.781 206.727L289.156 227.625H287.315L292.94 206.727H294.781ZM297.438 207.545H299.961L305.892 222.034H306.097L312.029 207.545H314.551V225H312.574V211.739H312.404L306.949 225H305.04L299.586 211.739H299.415V225H297.438V207.545ZM326.767 219.648V211.909H328.778V225H326.767V222.784H326.63C326.324 223.449 325.846 224.014 325.199 224.48C324.551 224.94 323.733 225.17 322.744 225.17C321.926 225.17 321.199 224.991 320.562 224.634C319.926 224.27 319.426 223.724 319.062 222.997C318.699 222.264 318.517 221.341 318.517 220.227V211.909H320.528V220.091C320.528 221.045 320.795 221.807 321.329 222.375C321.869 222.943 322.556 223.227 323.392 223.227C323.892 223.227 324.4 223.099 324.917 222.844C325.44 222.588 325.877 222.196 326.23 221.668C326.588 221.139 326.767 220.466 326.767 219.648ZM333.962 211.909L337.098 217.261L340.235 211.909H342.553L338.326 218.455L342.553 225H340.235L337.098 219.92L333.962 225H331.644L335.803 218.455L331.644 211.909H333.962Z" fill="#16052C"/>
<path d="M532.244 267.911L525.244 274.271C525.318 274.301 525.392 274.33 525.467 274.358C525.504 274.372 525.541 274.386 525.578 274.399L525.667 274.431C525.696 274.441 525.726 274.452 525.756 274.462L525.844 274.492C525.874 274.502 525.904 274.511 525.933 274.521L526.067 274.563C526.111 274.576 526.155 274.59 526.2 274.603L526.333 274.641C526.37 274.651 526.407 274.661 526.444 274.67L526.578 274.705C526.615 274.714 526.652 274.723 526.689 274.732L526.822 274.762C526.874 274.774 526.926 274.785 526.978 274.795L527.111 274.822C527.148 274.829 527.185 274.836 527.222 274.842L527.311 274.858C527.341 274.863 527.37 274.868 527.4 274.873L527.511 274.89C527.533 274.893 527.556 274.896 527.578 274.9L527.644 274.909C527.689 274.915 527.733 274.921 527.778 274.926L527.889 274.939C527.926 274.943 527.963 274.947 528 274.951L528.133 274.963C528.17 274.966 528.207 274.969 528.244 274.972L528.356 274.98C528.4 274.982 528.444 274.985 528.489 274.987L528.711 274.996C528.77 274.998 528.83 274.999 528.889 274.999L529 275C529.074 275 529.148 274.999 529.222 274.998C529.259 274.997 529.296 274.996 529.333 274.995L529.378 274.993C529.422 274.991 529.467 274.989 529.511 274.987L529.644 274.98C529.704 274.976 529.763 274.971 529.822 274.967L529.933 274.957C529.993 274.952 530.052 274.946 530.111 274.939L530.289 274.918C530.333 274.912 530.378 274.906 530.422 274.9L530.6 274.873C530.63 274.868 530.659 274.863 530.689 274.858L530.889 274.822C530.941 274.812 530.993 274.802 531.044 274.791L531.156 274.767C531.23 274.751 531.304 274.734 531.378 274.716L531.622 274.653C531.689 274.635 531.756 274.616 531.822 274.596L532.044 274.528C532.111 274.507 532.178 274.485 532.244 274.462L532.42 274.4C532.479 274.378 532.539 274.356 532.598 274.333L532.756 274.271C532.815 274.247 532.874 274.222 532.933 274.197L533.067 274.138C533.134 274.109 533.2 274.078 533.267 274.047L533.467 273.949C533.519 273.923 533.571 273.897 533.622 273.87L533.844 273.75C533.907 273.716 533.969 273.68 534.031 273.644L534.267 273.502C534.334 273.461 534.401 273.418 534.467 273.375L534.644 273.256C534.697 273.22 534.749 273.184 534.8 273.147L535 273.001C535.052 272.961 535.104 272.922 535.156 272.881L535.444 272.647C535.523 272.581 535.601 272.513 535.677 272.444L535.893 272.244C535.97 272.172 536.045 272.097 536.12 272.022L536.333 271.799C536.401 271.726 536.468 271.652 536.533 271.577L536.684 271.4C536.746 271.326 536.807 271.251 536.867 271.174L537.001 271C537.053 270.93 537.105 270.859 537.156 270.788L537.244 270.661C537.289 270.597 537.332 270.532 537.375 270.467L537.584 270.133C537.998 269.442 538.331 268.697 538.57 267.911H532.244Z" fill="white"/>
<path fill-rule="evenodd" clip-rule="evenodd" d="M537.584 270.133L537.375 270.467C537.447 270.357 537.516 270.246 537.584 270.133ZM537.244 270.661L537.156 270.788C537.186 270.746 537.215 270.704 537.244 270.661ZM537.001 271L536.867 271.174C536.912 271.117 536.957 271.059 537.001 271ZM536.684 271.4L536.533 271.577C536.584 271.518 536.635 271.459 536.684 271.4ZM536.333 271.799L536.12 272.022C536.192 271.949 536.263 271.874 536.333 271.799ZM535.893 272.244L535.677 272.444C535.75 272.379 535.822 272.312 535.893 272.244ZM535.444 272.647L535.156 272.881C535.253 272.805 535.35 272.727 535.444 272.647ZM535 273.001L534.8 273.147C534.867 273.099 534.934 273.05 535 273.001ZM534.644 273.256L534.467 273.375C534.526 273.336 534.586 273.296 534.644 273.256ZM534.267 273.502L534.031 273.644C534.11 273.598 534.189 273.551 534.267 273.502ZM533.844 273.75L533.622 273.87C533.697 273.831 533.771 273.791 533.844 273.75ZM533.467 273.949L533.267 274.047C533.334 274.015 533.4 273.983 533.467 273.949ZM533.067 274.138L532.933 274.197C532.978 274.178 533.022 274.158 533.067 274.138ZM532.756 274.271L532.598 274.333C532.65 274.313 532.703 274.292 532.756 274.271ZM532.42 274.4L532.244 274.462C532.303 274.442 532.362 274.421 532.42 274.4ZM532.044 274.528L531.822 274.596C531.897 274.574 531.971 274.552 532.044 274.528ZM531.622 274.653L531.378 274.716C531.46 274.696 531.541 274.675 531.622 274.653ZM531.156 274.767L531.044 274.791C531.082 274.783 531.119 274.775 531.156 274.767ZM530.889 274.822L530.689 274.858C530.756 274.847 530.822 274.835 530.889 274.822ZM530.6 274.873L530.422 274.9C530.482 274.891 530.541 274.882 530.6 274.873ZM530.289 274.918L530.111 274.939C530.171 274.932 530.23 274.925 530.289 274.918ZM529.933 274.957L529.822 274.967C529.859 274.964 529.896 274.96 529.933 274.957ZM529.644 274.98L529.511 274.987C529.556 274.985 529.6 274.982 529.644 274.98ZM529.378 274.993L529.333 274.995C529.348 274.994 529.363 274.994 529.378 274.993ZM529 275L528.889 274.999C528.926 275 528.963 275 529 275ZM528.711 274.996L528.489 274.987C528.563 274.991 528.637 274.994 528.711 274.996ZM528.356 274.98L528.244 274.972C528.281 274.975 528.318 274.977 528.356 274.98ZM528.133 274.963L528 274.951C528.044 274.955 528.089 274.959 528.133 274.963ZM527.889 274.939L527.778 274.926C527.815 274.931 527.852 274.935 527.889 274.939ZM527.644 274.909L527.578 274.9C527.6 274.903 527.622 274.906 527.644 274.909ZM527.511 274.89L527.4 274.873C527.437 274.879 527.474 274.884 527.511 274.89ZM527.311 274.858L527.222 274.842C527.252 274.848 527.281 274.853 527.311 274.858ZM527.111 274.822L526.978 274.795C527.022 274.805 527.067 274.813 527.111 274.822ZM526.822 274.762L526.689 274.732C526.733 274.742 526.778 274.752 526.822 274.762ZM526.578 274.705L526.444 274.67C526.489 274.682 526.533 274.694 526.578 274.705ZM526.333 274.641L526.2 274.603C526.244 274.616 526.289 274.628 526.333 274.641ZM526.067 274.563L525.933 274.521C525.978 274.535 526.022 274.549 526.067 274.563ZM525.844 274.492L525.756 274.462C525.785 274.472 525.815 274.482 525.844 274.492ZM525.667 274.431L525.578 274.399C525.607 274.41 525.637 274.42 525.667 274.431Z" fill="white"/>
<path fill-rule="evenodd" clip-rule="evenodd" d="M522.06 272.2L521.627 271.756C521.767 271.908 521.911 272.056 522.06 272.2Z" fill="white"/>
<path d="M528.356 263.067L520.568 270.378C520.801 270.742 521.056 271.091 521.333 271.421C521.429 271.535 521.527 271.646 521.627 271.756L522.06 272.2C522.429 272.555 522.825 272.883 523.244 273.179L533.533 263.067H528.356Z" fill="white"/>
<path fill-rule="evenodd" clip-rule="evenodd" d="M539 265C539 265.082 538.999 265.163 538.997 265.244L538.995 264.667C538.998 264.777 539 264.888 539 265ZM538.946 263.956C538.955 264.044 538.963 264.133 538.97 264.222L538.946 263.956ZM538.887 263.489C538.899 263.57 538.91 263.652 538.921 263.733L538.887 263.489ZM538.809 263.044C538.822 263.111 538.835 263.178 538.846 263.244L538.809 263.044ZM538.705 262.578C538.721 262.644 538.737 262.711 538.752 262.778L538.705 262.578ZM538.59 262.156C538.616 262.244 538.641 262.333 538.665 262.422L538.59 262.156ZM538.423 261.644C538.455 261.733 538.485 261.822 538.514 261.911L538.423 261.644ZM538.197 261.067C538.241 261.169 538.283 261.273 538.324 261.378L538.197 261.067ZM537.982 260.6C538.019 260.674 538.054 260.749 538.089 260.824L537.982 260.6ZM537.623 259.933C537.7 260.063 537.774 260.195 537.844 260.329L537.623 259.933ZM537.241 259.333C537.311 259.436 537.38 259.539 537.447 259.644L537.241 259.333ZM536.847 258.8C536.91 258.88 536.973 258.962 537.034 259.044L536.847 258.8ZM536.378 258.249C536.469 258.35 536.559 258.452 536.647 258.556L536.378 258.249ZM535.956 257.815C536.041 257.898 536.124 257.981 536.206 258.067L535.956 257.815ZM535.289 257.225C535.455 257.359 535.617 257.499 535.775 257.644L535.533 257.429L535.289 257.225ZM534.867 256.901C534.949 256.961 535.031 257.022 535.111 257.084L534.99 256.992L534.867 256.901ZM538.912 266.333L538.953 265.978L538.981 265.622C538.966 265.862 538.943 266.099 538.912 266.333ZM538.665 267.578L538.752 267.222L538.822 266.889C538.777 267.121 538.725 267.351 538.665 267.578ZM538.333 268.598L538.507 268.111C538.453 268.275 538.395 268.437 538.333 268.598ZM537.858 269.644L538.108 269.133C538.03 269.306 537.946 269.477 537.858 269.644ZM537.017 270.978L537.53 270.222C537.37 270.482 537.199 270.734 537.017 270.978ZM536.111 272.031L536.552 271.556C536.41 271.719 536.263 271.877 536.111 272.031ZM534.978 273.017L535.422 272.665C535.278 272.787 535.129 272.904 534.978 273.017ZM534.156 273.57L534.511 273.346C534.394 273.423 534.276 273.498 534.156 273.57ZM533.311 274.026L533.733 273.811C533.595 273.886 533.454 273.957 533.311 274.026ZM531.889 274.576L532.556 274.349C532.337 274.433 532.115 274.508 531.889 274.576ZM530.6 274.873L531.267 274.742C531.047 274.793 530.825 274.837 530.6 274.873ZM529 275L529.822 274.967C529.551 274.989 529.277 275 529 275ZM527.4 274.873L528.178 274.967C527.916 274.945 527.656 274.914 527.4 274.873ZM526.111 274.576L526.733 274.742C526.523 274.693 526.316 274.638 526.111 274.576ZM524.689 274.026L525.067 274.197L525.444 274.349C525.187 274.252 524.935 274.143 524.689 274.026ZM523.489 273.346L524.156 273.75C523.945 273.622 523.725 273.489 523.489 273.346ZM522.244 272.373L522.889 272.916C522.666 272.744 522.451 272.563 522.244 272.373ZM521.586 271.711L521.889 272.031C521.786 271.926 521.685 271.82 521.586 271.711ZM520.983 270.978L521.316 271.4C521.201 271.262 521.09 271.122 520.983 270.978ZM519.609 268.444L520.213 269.778C520.022 269.333 519.81 268.889 519.609 268.444Z" fill="white"/>
<path d="M529 255C523.477 255 519 259.477 519 265C519 266.21 519.215 267.371 519.609 268.444L532.6 255.668C531.483 255.236 530.269 255 529 255Z" fill="white"/>
</g>
<defs>
<clipPath id="clip0_325_194">
<rect width="690" height="448.759" fill="white"/>
</clipPath>
</defs>
</svg>
