<svg width="72" height="73" viewBox="0 0 72 73" fill="none" xmlns="http://www.w3.org/2000/svg">
<path d="M55.1111 32.2778L37.6111 48.1771C37.7952 48.2518 37.9804 48.3243 38.1667 48.3947C38.259 48.4295 38.3516 48.4639 38.4444 48.4977L38.6667 48.5775C38.7406 48.6036 38.8147 48.6294 38.8889 48.6548L39.1111 48.7298C39.185 48.7544 39.2591 48.7786 39.3333 48.8025L39.6667 48.9072C39.7775 48.9411 39.8886 48.9743 40 49.0068L40.3333 49.1013C40.4257 49.1268 40.5183 49.1518 40.6111 49.1762L40.9444 49.2616C41.0368 49.2846 41.1294 49.3071 41.2222 49.329L41.5556 49.4055C41.6848 49.4342 41.8144 49.4619 41.9444 49.4886L42.2778 49.5547C42.3702 49.5723 42.4628 49.5895 42.5556 49.6061L42.7778 49.645C42.8517 49.6575 42.9258 49.6698 43 49.6817L43.2778 49.7248C43.3333 49.7331 43.3888 49.7412 43.4445 49.7491L43.6111 49.7722C43.722 49.7873 43.8331 49.8016 43.9444 49.8151L44.2222 49.8474C44.3147 49.8576 44.4073 49.8674 44.5 49.8766L44.8333 49.9074C44.9258 49.9153 45.0184 49.9228 45.1111 49.9297L45.3889 49.9489C45.4998 49.956 45.6109 49.9623 45.7222 49.9679L46.2778 49.9898C46.4256 49.994 46.5738 49.9969 46.7222 49.9985L47 50C47.1857 50 47.3709 49.998 47.5556 49.9939C47.6483 49.9919 47.7409 49.9894 47.8333 49.9864L47.9444 49.9825C48.0557 49.9784 48.1669 49.9735 48.2778 49.9679L48.6111 49.9489C48.7596 49.9395 48.9078 49.9287 49.0556 49.9167L49.3333 49.8925C49.4819 49.8788 49.63 49.8638 49.7778 49.8474L50.2222 49.7943C50.3336 49.7799 50.4447 49.7649 50.5556 49.7491L51 49.6817C51.0742 49.6698 51.1483 49.6575 51.2222 49.645L51.7222 49.5547C51.8522 49.5298 51.9818 49.5039 52.1111 49.4771L52.3889 49.4177C52.5749 49.3769 52.7601 49.3339 52.9444 49.289L53.5556 49.1317C53.7229 49.0863 53.8896 49.0393 54.0556 48.9905L54.6111 48.8203C54.7786 48.7669 54.9452 48.7117 55.1111 48.6548L55.5493 48.5C55.6982 48.4458 55.8464 48.3903 55.994 48.3333L56.3889 48.1771C56.5378 48.1168 56.6859 48.055 56.8333 47.9919L57.1667 47.8462C57.3343 47.7715 57.501 47.695 57.6667 47.6167L58.1667 47.3736C58.2969 47.3085 58.4266 47.2422 58.5556 47.1749L59.1111 46.8758C59.2672 46.7892 59.4223 46.7009 59.5763 46.6111L60.1667 46.2558C60.3347 46.1515 60.5013 46.0453 60.6667 45.9372L61.1111 45.6397C61.2416 45.5502 61.3713 45.4596 61.5 45.3678L62 45.0018C62.1306 44.9037 62.2603 44.8043 62.3889 44.7037L63.1111 44.117C63.3075 43.9513 63.5013 43.7827 63.6925 43.6111L64.2334 43.1111C64.4248 42.9289 64.6134 42.7437 64.799 42.5556L65.3333 41.9969C65.5027 41.8143 65.6694 41.6291 65.8333 41.4415L66.2102 41C66.365 40.8143 66.5172 40.6264 66.6667 40.4362L67.0018 40C67.1331 39.8252 67.2621 39.6487 67.3889 39.4704L67.6111 39.1527C67.7216 38.992 67.8303 38.83 67.9372 38.6667L68.4592 37.8333C69.4944 36.1059 70.3271 34.2431 70.9241 32.2778H55.1111Z" fill="#240879"/>
<path fill-rule="evenodd" clip-rule="evenodd" d="M68.4592 37.8333L67.9372 38.6667C68.1165 38.3926 68.2905 38.1148 68.4592 37.8333ZM67.6111 39.1527L67.3889 39.4704C67.4638 39.3651 67.5378 39.2592 67.6111 39.1527ZM67.0018 40L66.6667 40.4362C66.7799 40.2921 66.8917 40.1467 67.0018 40ZM66.2102 41L65.8333 41.4415C65.9606 41.2958 66.0863 41.1486 66.2102 41ZM65.3333 41.9969L64.799 42.5556C64.9799 42.3721 65.1581 42.1859 65.3333 41.9969ZM64.2334 43.1111L63.6925 43.6111C63.8752 43.4471 64.0556 43.2804 64.2334 43.1111ZM63.1111 44.117L62.3889 44.7037C62.6333 44.5126 62.8741 44.3169 63.1111 44.117ZM62 45.0018L61.5 45.3678C61.6682 45.2478 61.8349 45.1258 62 45.0018ZM61.1111 45.6397L60.6667 45.9372C60.8159 45.8396 60.9641 45.7404 61.1111 45.6397ZM60.1667 46.2558L59.5763 46.6111C59.7749 46.4953 59.9717 46.3769 60.1667 46.2558ZM59.1111 46.8758L58.5556 47.1749C58.7421 47.0775 58.9273 46.9777 59.1111 46.8758ZM58.1667 47.3736L57.6667 47.6167C57.8344 47.5375 58.001 47.4565 58.1667 47.3736ZM57.1667 47.8462L56.8333 47.9919C56.9449 47.9441 57.056 47.8956 57.1667 47.8462ZM56.3889 48.1771L55.994 48.3333C56.1262 48.2824 56.2578 48.2303 56.3889 48.1771ZM55.5493 48.5L55.1111 48.6548C55.2578 48.6045 55.4039 48.5529 55.5493 48.5ZM54.6111 48.8203L54.0556 48.9905C54.2417 48.9359 54.4268 48.8791 54.6111 48.8203ZM53.5556 49.1317L52.9444 49.289C53.1491 49.239 53.3529 49.1866 53.5556 49.1317ZM52.3889 49.4177L52.1111 49.4771C52.2039 49.4578 52.2965 49.438 52.3889 49.4177ZM51.7222 49.5547L51.2222 49.645C51.3895 49.6165 51.5561 49.5864 51.7222 49.5547ZM51 49.6817L50.5556 49.7491C50.7041 49.7279 50.8523 49.7055 51 49.6817ZM50.2222 49.7943L49.7778 49.8474C49.9263 49.831 50.0745 49.8133 50.2222 49.7943ZM49.3333 49.8925L49.0556 49.9167C49.1483 49.9092 49.2409 49.9011 49.3333 49.8925ZM48.6111 49.9489L48.2778 49.9679C48.3891 49.9623 48.5002 49.956 48.6111 49.9489ZM47.9444 49.9825L47.8333 49.9864C47.8704 49.9852 47.9074 49.9839 47.9444 49.9825ZM47 50L46.7222 49.9985C46.8147 49.9995 46.9073 50 47 50ZM46.2778 49.9898L45.7222 49.9679C45.9069 49.9772 46.0921 49.9845 46.2778 49.9898ZM45.3889 49.9489L45.1111 49.9297C45.2036 49.9366 45.2962 49.943 45.3889 49.9489ZM44.8333 49.9074L44.5 49.8766C44.6109 49.8876 44.722 49.8979 44.8333 49.9074ZM44.2222 49.8474L43.9444 49.8151C44.0369 49.8264 44.1295 49.8372 44.2222 49.8474ZM43.6111 49.7722L43.4445 49.7491C43.5 49.757 43.5555 49.7647 43.6111 49.7722ZM43.2778 49.7248L43 49.6817C43.0924 49.6966 43.185 49.7109 43.2778 49.7248ZM42.7778 49.645L42.5556 49.6061C42.6295 49.6194 42.7036 49.6323 42.7778 49.645ZM42.2778 49.5547L41.9444 49.4886C42.0553 49.5113 42.1664 49.5334 42.2778 49.5547ZM41.5556 49.4055L41.2222 49.329C41.3331 49.3552 41.4442 49.3807 41.5556 49.4055ZM40.9444 49.2616L40.6111 49.1762C40.7219 49.2054 40.833 49.2339 40.9444 49.2616ZM40.3333 49.1013L40 49.0068C40.1108 49.039 40.2219 49.0705 40.3333 49.1013ZM39.6667 48.9072L39.3333 48.8025C39.4441 48.8382 39.5552 48.8731 39.6667 48.9072ZM39.1111 48.7298L38.8889 48.6548C38.9628 48.6802 39.0369 48.7052 39.1111 48.7298ZM38.6667 48.5775L38.4444 48.4977C38.5184 48.5246 38.5924 48.5512 38.6667 48.5775Z" fill="#240879"/>
<path fill-rule="evenodd" clip-rule="evenodd" d="M29.6506 43L28.5671 41.8889C28.9168 42.2703 29.2781 42.6409 29.6506 43Z" fill="#240879"/>
<path d="M45.3889 20.1667L25.9191 38.4444C26.5014 39.3556 27.1412 40.2265 27.8333 41.0521C28.0718 41.3365 28.3164 41.6155 28.5671 41.8889L29.6506 43C30.5722 43.8885 31.5619 44.7069 32.6111 45.4466L58.3333 20.1667H45.3889Z" fill="#240879"/>
<path fill-rule="evenodd" clip-rule="evenodd" d="M72 25C72 25.2043 71.9975 25.408 71.9927 25.6111L71.9864 24.1667C71.9954 24.4433 72 24.7211 72 25ZM71.8653 22.3889C71.8883 22.6103 71.9083 22.8325 71.9255 23.0556L71.8653 22.3889ZM71.7164 21.2222C71.7472 21.4251 71.7755 21.6288 71.8013 21.8333L71.7164 21.2222ZM71.5222 20.1111C71.5551 20.2772 71.5864 20.4439 71.616 20.6111L71.5222 20.1111ZM71.2616 18.9444C71.3029 19.1105 71.3425 19.2771 71.3805 19.4444L71.2616 18.9444ZM70.9741 17.8889C71.0396 18.1099 71.102 18.3321 71.1615 18.5556L70.9741 17.8889ZM70.5577 16.6111C70.6364 16.8319 70.712 17.0542 70.7845 17.2778L70.5577 16.6111ZM69.9919 15.1667C70.102 15.4237 70.2079 15.683 70.3095 15.9444L69.9919 15.1667ZM69.4562 14C69.5471 14.1852 69.6358 14.3718 69.7222 14.5596L69.4562 14ZM68.5582 12.3333C68.7497 12.6586 68.9341 12.9886 69.1111 13.3231L68.5582 12.3333ZM67.6015 10.8333C67.7778 11.0892 67.9494 11.3485 68.1163 11.6111L67.6015 10.8333ZM66.6163 9.5C66.7755 9.70122 66.9317 9.90495 67.0848 10.1111L66.6163 9.5ZM65.4444 8.12368C65.6737 8.37412 65.898 8.62924 66.117 8.88889L65.4444 8.12368ZM64.3889 7.03816C64.6014 7.24396 64.8103 7.4535 65.0155 7.66667L64.3889 7.03816ZM62.7222 5.56155C63.1383 5.89852 63.5434 6.24858 63.9368 6.61111L63.3333 6.07269L62.7222 5.56155ZM61.6667 4.75207C61.8728 4.90162 62.0765 5.05423 62.2778 5.20985L61.9743 4.97888L61.6667 4.75207ZM71.7797 28.3333L71.882 27.4444L71.9524 26.5556C71.9156 27.1541 71.8578 27.7469 71.7797 28.3333ZM71.1615 31.4444L71.3805 30.5556L71.5547 29.7222C71.4435 30.3037 71.3122 30.878 71.1615 31.4444ZM70.3333 33.994L70.7665 32.7778C70.6323 33.188 70.4878 33.5935 70.3333 33.994ZM69.1458 36.6111L69.7712 35.3333C69.5746 35.766 69.366 36.1921 69.1458 36.6111ZM67.0434 39.9444L68.3244 38.0556C67.9257 38.7054 67.4981 39.3356 67.0434 39.9444ZM64.7778 42.577L65.8792 41.3889C65.5248 41.7967 65.1575 42.193 64.7778 42.577ZM61.9444 45.0434L63.0556 44.1637C62.6938 44.4672 62.3232 44.7605 61.9444 45.0434ZM59.8889 46.4258L60.7778 45.8641C60.4857 46.0573 60.1894 46.2446 59.8889 46.4258ZM57.7778 47.5639L58.8333 47.0276C58.4863 47.2144 58.1344 47.3933 57.7778 47.5639ZM54.2222 48.941L55.8889 48.3736C55.3423 48.5816 54.7864 48.771 54.2222 48.941ZM51 49.6817L52.6667 49.355C52.1178 49.4822 51.562 49.5913 51 49.6817ZM47 50L49.0555 49.9167C48.3776 49.9719 47.6921 50 47 50ZM43 49.6817L44.9444 49.9167C44.2888 49.8634 43.6403 49.7847 43 49.6817ZM39.7778 48.941L41.3333 49.355C40.8083 49.2334 40.2896 49.0951 39.7778 48.941ZM36.2222 47.5639L37.1667 47.9919L38.1111 48.3736C37.4684 48.129 36.8383 47.8587 36.2222 47.5639ZM33.2222 45.8641L34.8889 46.8758C34.3613 46.5556 33.8122 46.2222 33.2222 45.8641ZM30.1111 43.4329L31.7222 44.7901C31.1661 44.3602 30.6286 43.9073 30.1111 43.4329ZM28.4658 41.7778L29.2222 42.577C28.9643 42.3162 28.7121 42.0497 28.4658 41.7778ZM26.9566 39.9444L27.7898 41C27.5029 40.6559 27.225 40.3039 26.9566 39.9444ZM23.5226 33.6111L25.0326 36.9444C24.5556 35.8333 24.0259 34.7222 23.5226 33.6111Z" fill="#240879"/>
<path d="M47 0C33.1929 0 22 11.1929 22 25C22 28.026 22.5376 30.9265 23.5226 33.6111L56 1.66898C53.2074 0.591022 50.1727 0 47 0Z" fill="#240879"/>
<path d="M49.4977 52.8638L45.9397 59.1338L14.7222 39.0226L18.2802 32.7526L49.4977 52.8638Z" fill="#989595" stroke="#9D9797"/>
<path d="M51.4707 65.8541L51.4595 66.1547L51.704 66.3178L55.3527 68.7521C53.8491 69.1597 52.2618 69.1533 50.743 68.7255C48.8981 68.2059 47.2458 67.0905 46.0174 65.5354C44.7889 63.9804 44.0454 62.0627 43.8923 60.0508C43.7392 58.0387 44.1844 56.0336 45.1662 54.3171C46.148 52.6006 47.6165 51.2599 49.3652 50.4824C51.1139 49.7049 53.0545 49.5298 54.915 49.98C56.7754 50.4302 58.4633 51.4833 59.7425 52.9918C60.7874 54.224 61.5172 55.7102 61.8697 57.3064L58.574 55.1076L58.3376 54.9499L58.0929 55.0795L51.9953 58.3082L51.7471 58.4396L51.7361 58.7344L51.4707 65.8541Z" fill="#989595" stroke="#9D9797"/>
<path d="M12.7053 24.6999L9.39779 22.5213C10.8981 22.1534 12.4724 22.1947 13.9718 22.6492C15.8075 23.2056 17.4399 24.3536 18.6406 25.9327C19.8413 27.5118 20.5506 29.4436 20.6676 31.4579C20.7847 33.4722 20.3035 35.4676 19.2909 37.1636C18.2783 38.8597 16.7856 40.1704 15.0229 40.9124C13.2603 41.6544 11.3165 41.7905 9.46407 41.3032C7.61167 40.8159 5.94246 39.7294 4.69017 38.1958C3.65921 36.9333 2.95295 35.4193 2.63251 33.8025L6.29429 36.2144L6.53964 36.3761L6.78792 36.2326L12.6688 32.8356L12.9123 32.695L12.9134 32.3998L12.9414 25.1473L12.9425 24.8562L12.7053 24.6999Z" fill="#989595" stroke="#9D9797"/>
</svg>
